<?xml version="1.0" standalone="no"?>
<!DOCTYPE svg PUBLIC "-//W3C//DTD SVG 20010904//EN"
 "http://www.w3.org/TR/2001/REC-SVG-20010904/DTD/svg10.dtd">
<svg version="1.0" xmlns="http://www.w3.org/2000/svg"
 width="102.400000pt" height="102.400000pt" viewBox="0 0 102.400000 102.400000"
 preserveAspectRatio="xMidYMid meet">
<metadata>
Created by potrace 1.13, written by Peter Selinger 2001-2015
</metadata>
<g transform="translate(0.000000,102.400000) scale(0.080000,-0.080000)"
fill="#000000" stroke="none">
<path d="M250 1249 c-14 -6 -44 -7 -68 -4 -53 8 -72 -5 -72 -50 0 -18 -13 -62
-30 -98 -40 -89 -53 -150 -45 -220 8 -69 50 -131 108 -162 33 -17 37 -24 33
-47 -4 -23 -2 -28 13 -28 14 0 18 5 14 20 -7 28 21 26 41 -2 9 -12 19 -19 22
-15 4 4 1 13 -5 21 -7 8 -10 19 -7 24 3 6 -11 13 -31 17 -53 10 -84 28 -126
74 -62 68 -63 160 -3 304 19 46 36 96 38 113 3 28 5 29 58 30 30 1 82 6 115
11 42 8 78 7 120 0 33 -6 78 -10 100 -10 42 1 55 -9 55 -42 0 -12 17 -61 37
-110 75 -183 37 -312 -104 -359 -34 -11 -52 -24 -60 -43 -17 -36 -8 -42 18 -9
22 28 44 26 36 -5 -3 -12 0 -19 9 -19 9 0 14 11 14 29 0 24 8 34 44 55 24 14
55 43 68 63 20 33 23 51 23 133 0 85 -4 103 -33 170 -17 41 -32 84 -32 95 0
40 -25 60 -77 63 -201 10 -251 10 -273 1z"/>
<path d="M210 1020 c0 -5 16 -10 36 -10 21 0 33 4 29 10 -3 6 -19 10 -36 10
-16 0 -29 -4 -29 -10z"/>
<path d="M415 1020 c-8 -12 -8 -12 38 -15 41 -2 50 9 15 19 -33 8 -46 7 -53
-4z"/>
<path d="M290 888 c0 -13 39 -25 70 -20 20 3 27 9 23 18 -6 16 -93 17 -93 2z"/>
</g>
</svg>
